<mxfile host="app.diagrams.net" modified="2024-03-07T22:31:26.738Z" agent="Mozilla/5.0 (Windows NT 10.0; Win64; x64) AppleWebKit/537.36 (KHTML, like Gecko) Chrome/121.0.0.0 Safari/537.36" etag="FJ1L9USnumS9aS6sUn0J" version="24.0.2" type="github">
  <diagram name="Page-1" id="wRZcNBcNKXCUhKgU5QRi">
    <mxGraphModel dx="880" dy="468" grid="1" gridSize="10" guides="1" tooltips="1" connect="1" arrows="1" fold="1" page="1" pageScale="1" pageWidth="850" pageHeight="1100" math="0" shadow="0">
      <root>
        <mxCell id="0" />
        <mxCell id="1" parent="0" />
        <mxCell id="aGjurA2QEN3UjU6BS64B-2" value="inicio" style="ellipse;whiteSpace=wrap;html=1;" vertex="1" parent="1">
          <mxGeometry x="40" y="160" width="120" height="80" as="geometry" />
        </mxCell>
        <mxCell id="aGjurA2QEN3UjU6BS64B-6" value="" style="shape=flexArrow;endArrow=classic;html=1;rounded=0;" edge="1" parent="1">
          <mxGeometry width="50" height="50" relative="1" as="geometry">
            <mxPoint x="90" y="130" as="sourcePoint" />
            <mxPoint x="140" y="80" as="targetPoint" />
            <Array as="points">
              <mxPoint x="90" y="80" />
            </Array>
          </mxGeometry>
        </mxCell>
        <mxCell id="aGjurA2QEN3UjU6BS64B-7" value="Ler A1 e A2" style="rounded=0;whiteSpace=wrap;html=1;" vertex="1" parent="1">
          <mxGeometry x="150" y="50" width="120" height="60" as="geometry" />
        </mxCell>
        <mxCell id="aGjurA2QEN3UjU6BS64B-9" value="Realizar 0,4.A1+ 0,6.A2" style="rounded=0;whiteSpace=wrap;html=1;" vertex="1" parent="1">
          <mxGeometry x="400" y="50" width="120" height="60" as="geometry" />
        </mxCell>
        <mxCell id="aGjurA2QEN3UjU6BS64B-10" value="" style="shape=flexArrow;endArrow=classic;html=1;rounded=0;" edge="1" parent="1">
          <mxGeometry width="50" height="50" relative="1" as="geometry">
            <mxPoint x="300" y="79.5" as="sourcePoint" />
            <mxPoint x="370" y="79.5" as="targetPoint" />
            <Array as="points" />
          </mxGeometry>
        </mxCell>
        <mxCell id="aGjurA2QEN3UjU6BS64B-11" value="Valor = ou &amp;gt; 4,97&amp;nbsp;" style="rhombus;whiteSpace=wrap;html=1;" vertex="1" parent="1">
          <mxGeometry x="620" y="50" width="80" height="80" as="geometry" />
        </mxCell>
        <mxCell id="aGjurA2QEN3UjU6BS64B-12" value="" style="shape=flexArrow;endArrow=classic;html=1;rounded=0;" edge="1" parent="1">
          <mxGeometry width="50" height="50" relative="1" as="geometry">
            <mxPoint x="540" y="89.5" as="sourcePoint" />
            <mxPoint x="600" y="89.5" as="targetPoint" />
          </mxGeometry>
        </mxCell>
        <mxCell id="aGjurA2QEN3UjU6BS64B-15" value="" style="endArrow=classic;html=1;rounded=0;" edge="1" parent="1">
          <mxGeometry relative="1" as="geometry">
            <mxPoint x="720" y="89.5" as="sourcePoint" />
            <mxPoint x="840" y="89.5" as="targetPoint" />
          </mxGeometry>
        </mxCell>
        <mxCell id="aGjurA2QEN3UjU6BS64B-16" value="NÃ£o&lt;div&gt;&lt;br&gt;&lt;/div&gt;" style="edgeLabel;resizable=0;html=1;;align=center;verticalAlign=middle;" connectable="0" vertex="1" parent="aGjurA2QEN3UjU6BS64B-15">
          <mxGeometry relative="1" as="geometry" />
        </mxCell>
        <mxCell id="aGjurA2QEN3UjU6BS64B-17" value="Realizar P3" style="rounded=0;whiteSpace=wrap;html=1;" vertex="1" parent="1">
          <mxGeometry x="870" y="60" width="120" height="60" as="geometry" />
        </mxCell>
        <mxCell id="aGjurA2QEN3UjU6BS64B-20" value="" style="endArrow=classic;html=1;rounded=0;" edge="1" parent="1">
          <mxGeometry relative="1" as="geometry">
            <mxPoint x="660" y="150" as="sourcePoint" />
            <mxPoint x="660" y="220" as="targetPoint" />
          </mxGeometry>
        </mxCell>
        <mxCell id="aGjurA2QEN3UjU6BS64B-21" value="Sim&lt;div&gt;&lt;br&gt;&lt;/div&gt;" style="edgeLabel;resizable=0;html=1;;align=center;verticalAlign=middle;" connectable="0" vertex="1" parent="aGjurA2QEN3UjU6BS64B-20">
          <mxGeometry relative="1" as="geometry" />
        </mxCell>
        <mxCell id="aGjurA2QEN3UjU6BS64B-22" value="Apresentar o resultado" style="shape=tape;whiteSpace=wrap;html=1;" vertex="1" parent="1">
          <mxGeometry x="600" y="240" width="120" height="100" as="geometry" />
        </mxCell>
        <mxCell id="aGjurA2QEN3UjU6BS64B-23" value="" style="shape=flexArrow;endArrow=classic;html=1;rounded=0;" edge="1" parent="1">
          <mxGeometry width="50" height="50" relative="1" as="geometry">
            <mxPoint x="1010" y="90" as="sourcePoint" />
            <mxPoint x="1080" y="90" as="targetPoint" />
          </mxGeometry>
        </mxCell>
        <mxCell id="aGjurA2QEN3UjU6BS64B-24" value="Apresentar o resultado" style="shape=tape;whiteSpace=wrap;html=1;" vertex="1" parent="1">
          <mxGeometry x="1100" y="40" width="120" height="100" as="geometry" />
        </mxCell>
      </root>
    </mxGraphModel>
  </diagram>
</mxfile>
